# xmcd
#
# Track frame offsets:
#	150
#	19797
#	42922
#	60250
#	76195
#	96279
#	115095
#	126852
#	148172
#	165525
#	187515
#	205684
#	222970
#	244217
#	259087
#
# Disc length: 3721
#
# Revision: 1
# Processed by: cddbd v1.5.1PL0 Copyright (c) Steve Scherf et al.
# Submitted via: kTunes Pro (development) 1.0patch40.5
#
DISCID=c40e870f
DTITLE=Shania Twain - SC8446
DYEAR=1999
DGENRE=Karaoke
TTITLE0=Shania Twain - Home Ain't Where His Heart Is (Anymore)
TTITLE1=Shania Twain - Women In Me (Needs the Man In You), The
TTITLE2=Shania Twain - Love Gets Me Every Time
TTITLE3=Shania Twain - You're Still the One
TTITLE4=Shania Twain - Any Man of Mine
TTITLE5=Shania Twain - God Bless the Child
TTITLE6=Shania Twain - Dance With the One That Brought You
TTITLE7=Shania Twain - (If Your Not In It For Love) I'm Outta Here!
TTITLE8=Shania Twain - Don't Be Stupid (You Know I Love You)
TTITLE9=Shania Twain - Is There Life After Love?
TTITLE10=DUETS - Shania Twain and Bryan White - From This Moment On
TTITLE11=Shania Twain - Honey, I'm Home
TTITLE12=Shania Twain - You Win My Love
TTITLE13=Shania Twain - No One Needs to Know
TTITLE14=Shania Twain - Whose Bed Have Your Boots Been Under?
EXTD=
EXTT0=
EXTT1=
EXTT2=
EXTT3=
EXTT4=
EXTT5=
EXTT6=
EXTT7=
EXTT8=
EXTT9=
EXTT10=
EXTT11=
EXTT12=
EXTT13=
EXTT14=
PLAYORDER=
